<svg version="1.1" id="Layer_1" xmlns="http://www.w3.org/2000/svg" xmlns:xlink="http://www.w3.org/1999/xlink" x="0px" y="0px"
	 width="100%" viewBox="0 0 144 96" enable-background="new 0 0 144 96" xml:space="preserve">
<path fill="#FEFFFF" opacity="1.000000" stroke="none" 
	d="
M85.000000,97.000000 
	C56.666668,97.000000 28.833334,97.000000 1.000000,97.000000 
	C1.000000,65.000000 1.000000,33.000000 1.000000,1.000000 
	C49.000000,1.000000 97.000000,1.000000 145.000000,1.000000 
	C145.000000,33.000000 145.000000,65.000000 145.000000,97.000000 
	C125.166664,97.000000 105.333336,97.000000 85.000000,97.000000 
M112.783318,39.728916 
	C112.521912,39.476124 112.260506,39.223335 112.015671,38.173954 
	C112.257248,36.638767 112.498825,35.103577 112.828712,33.007179 
	C106.592590,33.007179 100.848572,32.771442 95.136345,33.095776 
	C91.720772,33.289707 88.354988,34.360744 84.299385,34.735115 
	C81.851723,35.107796 79.178139,36.282608 77.007607,35.671299 
	C73.462273,34.672783 72.512344,36.136894 71.441475,39.269672 
	C70.912033,39.568649 70.382591,39.867622 69.473648,39.617500 
	C67.355072,39.439983 65.236488,39.262463 62.392532,39.051617 
	C61.908535,39.043865 61.424541,39.036114 61.323463,38.487644 
	C61.732391,37.422020 62.141315,36.356400 62.550243,35.290775 
	C61.363094,35.546661 60.175949,35.802547 58.327965,35.988777 
	C57.885647,35.992355 57.443325,35.995930 56.974239,35.219185 
	C54.443180,30.117546 51.706905,34.470787 48.526596,35.018997 
	C48.351124,35.012562 48.175655,35.006130 47.892738,34.720974 
	C47.806610,34.671371 47.720486,34.621769 47.634357,34.572166 
	C47.756134,34.714840 47.877914,34.857513 47.601494,35.516514 
	C46.073620,35.949341 44.608475,37.581326 43.723202,34.293251 
	C43.093445,31.954205 41.107609,29.696751 39.148483,28.123095 
	C38.219646,27.377018 35.847038,28.074390 34.328926,28.648109 
	C33.914661,28.804668 34.226830,30.883438 33.989613,32.545578 
	C33.892139,32.686157 33.794670,32.826736 32.908054,32.972935 
	C24.657236,33.256001 22.782185,37.130386 26.638885,44.153004 
	C25.447990,44.987415 24.316200,45.780415 22.442738,47.093075 
	C23.831894,48.105232 25.221657,48.579811 25.600798,49.480026 
	C28.390100,56.102837 33.244408,57.111984 39.517265,55.137383 
	C40.889748,54.705345 42.496300,55.016903 44.134727,55.714512 
	C46.425591,57.477257 48.716457,59.240002 51.016521,61.692020 
	C51.378136,62.295597 51.739746,62.899178 52.101360,63.502754 
	C52.399860,62.669109 52.698364,61.835468 52.999939,61.000000 
	C52.999939,61.000000 53.001823,60.996880 53.778408,61.017403 
	C54.363407,61.246235 55.397202,61.381935 55.466885,61.717709 
	C56.759579,67.946762 61.122917,66.048668 65.503036,65.402290 
	C65.503036,65.402290 65.982979,65.484451 66.021652,66.202087 
	C68.209229,67.102547 70.600739,69.065971 72.544022,68.693130 
	C77.318245,67.777130 83.151466,70.794357 86.904701,65.287193 
	C87.125389,64.963387 88.960968,65.740158 90.092163,66.749352 
	C92.575829,71.163704 97.778931,72.303917 102.247307,69.804955 
	C103.701775,68.991531 106.050056,68.502960 107.464180,69.103302 
	C115.038277,72.318771 121.408195,68.175934 120.824661,59.850883 
	C120.731758,58.525551 118.815857,57.150040 117.488426,56.128090 
	C115.093750,54.284527 112.506866,52.690624 110.647141,50.886532 
	C111.092094,50.225338 111.537048,49.564144 112.350403,48.588326 
	C112.389275,48.137119 112.428139,47.685909 113.155838,46.813812 
	C112.994774,45.170605 112.833710,43.527401 112.821144,41.365181 
	C112.831078,41.004353 112.841019,40.643528 112.783318,39.728916 
z"/>
<path fill="#EDFCFC" opacity="1.000000" stroke="none" 
	d="
M90.045052,66.004768 
	C88.960968,65.740158 87.125389,64.963387 86.904701,65.287193 
	C83.151466,70.794357 77.318245,67.777130 72.544022,68.693130 
	C70.600739,69.065971 68.209229,67.102547 66.366905,65.727249 
	C68.403641,64.914871 70.095123,64.577347 72.057861,64.538345 
	C76.368454,63.898724 80.407791,62.960575 84.114693,62.099632 
	C79.938957,59.756561 76.128983,57.618725 72.046837,55.328171 
	C72.046837,56.446804 72.046837,57.237144 71.995056,58.329491 
	C71.922974,59.039459 71.902672,59.447426 71.532730,59.855156 
	C69.148956,59.137455 67.114815,58.419987 65.080673,57.702515 
	C65.032310,60.271439 60.777241,62.805225 65.016289,65.409966 
	C61.122917,66.048668 56.759579,67.946762 55.466885,61.717709 
	C55.397202,61.381935 54.363407,61.246235 53.390770,60.576607 
	C53.730507,56.978241 54.457882,53.820671 55.455906,49.488201 
	C51.470715,51.399910 47.732887,53.192959 43.995056,54.986008 
	C42.496300,55.016903 40.889748,54.705345 39.517265,55.137383 
	C33.244408,57.111984 28.390100,56.102837 25.600798,49.480026 
	C25.221657,48.579811 23.831894,48.105232 22.442738,47.093075 
	C24.316200,45.780415 25.447990,44.987415 26.638885,44.153004 
	C22.782185,37.130386 24.657236,33.256001 33.333939,33.320827 
	C32.191406,35.445831 30.622984,37.222939 29.009449,39.385189 
	C29.320469,41.521675 29.676598,43.273014 29.907818,45.339043 
	C30.789322,48.046303 31.202570,51.098667 32.948685,52.668442 
	C35.256084,54.742813 38.132111,53.676331 40.039787,51.042095 
	C40.006954,51.000008 40.056087,51.094460 40.335403,51.056049 
	C40.771675,50.697994 40.928631,50.378345 41.044952,50.060463 
	C41.004314,50.062229 41.060978,50.120602 41.368656,50.145378 
	C42.118389,49.779449 42.560444,49.388744 43.001175,48.998871 
	C42.999847,48.999695 42.997890,49.001705 43.220505,48.997147 
	C43.443115,48.992592 43.886539,48.951527 44.307358,48.967201 
	C45.848625,48.974091 46.969074,48.965302 48.328621,48.883270 
	C48.720032,48.532227 48.872337,48.254429 49.009399,47.986168 
	C48.994148,47.995708 48.985996,48.030750 49.303772,47.825394 
	C49.807552,46.118862 49.993561,44.617687 50.314873,43.116219 
	C50.450176,43.115925 50.719734,43.092064 50.810188,43.431267 
	C51.270454,44.588467 51.640259,45.406471 52.012428,46.552544 
	C56.336308,47.242794 60.657822,47.604984 65.389442,47.981377 
	C68.321793,48.391357 70.844048,48.787136 74.377518,49.341599 
	C73.655815,47.200653 73.272926,46.064819 72.875893,44.589867 
	C72.576576,43.166729 72.291405,42.082706 72.388138,40.992256 
	C78.087746,39.748722 82.447983,42.340614 83.785088,47.672756 
	C85.311867,47.672756 86.872398,47.672756 87.894424,47.672756 
	C87.894424,44.639355 87.894424,41.932014 87.894424,38.552334 
	C87.299828,37.838478 86.133331,36.438004 84.966827,35.037529 
	C88.354988,34.360744 91.720772,33.289707 95.136345,33.095776 
	C100.848572,32.771442 106.592590,33.007179 112.828712,33.007179 
	C112.498825,35.103577 112.257248,36.638767 112.006378,38.837986 
	C111.995346,39.678936 111.993607,39.855854 111.737976,40.166222 
	C111.020515,40.632797 110.556938,40.965923 110.061111,40.917976 
	C109.354576,39.692665 108.680290,38.848423 107.919327,37.836517 
	C107.560463,37.773579 107.288269,37.878307 106.614449,37.990479 
	C105.141670,37.998409 104.070534,37.998898 102.993713,37.654247 
	C102.526459,36.668671 102.064896,36.028233 101.603325,35.387794 
	C101.071671,36.251472 100.540024,37.115147 99.641296,37.987175 
	C98.204697,38.353416 97.135170,38.711308 96.053268,39.054039 
	C96.040886,39.038887 96.062447,39.041679 95.818756,39.126556 
	C95.388992,39.491611 95.202911,39.771793 94.961090,40.265778 
	C94.814270,40.770103 94.650108,41.010788 94.090881,41.134880 
	C93.552879,41.038834 93.336876,41.009537 93.070938,40.676086 
	C92.983742,39.963375 92.946472,39.554813 92.929214,38.781445 
	C92.328873,37.432632 91.708511,36.448635 91.088158,35.464638 
	C90.680054,35.625149 90.271950,35.785660 89.863846,35.946175 
	C90.091232,37.974716 90.318626,40.003262 90.630325,42.448536 
	C90.635231,44.271900 90.555832,45.678532 90.385391,47.205357 
	C90.246628,47.656628 90.381180,47.896626 91.056091,48.149101 
	C91.661392,48.227489 91.908615,48.202320 92.399254,48.187088 
	C92.642670,48.197025 93.105362,48.044334 93.439545,48.026703 
	C94.219635,47.976955 94.665550,47.944843 95.087875,47.948807 
	C95.064293,47.984875 95.048218,47.900192 95.190758,48.168030 
	C95.705536,48.571335 96.077774,48.706802 96.804840,48.834801 
	C98.102425,48.894272 99.045189,48.961212 99.965866,49.354740 
	C100.981087,54.253456 100.944893,54.221050 96.601227,59.072227 
	C95.291023,60.535519 94.344322,62.323864 93.037140,63.790428 
	C92.228951,64.697159 91.054871,65.277756 90.045052,66.004768 
z"/>
<path fill="#D9F7FB" opacity="1.000000" stroke="none" 
	d="
M90.068604,66.377060 
	C91.054871,65.277756 92.228951,64.697159 93.037140,63.790428 
	C94.344322,62.323864 95.291023,60.535519 96.601227,59.072227 
	C100.944893,54.221050 100.981087,54.253456 100.205276,49.287224 
	C100.466774,48.893120 100.963036,48.923748 101.077606,49.205647 
	C101.787132,49.971497 102.382088,50.455448 102.991951,51.005478 
	C103.006851,51.071564 103.096581,51.173077 103.195190,51.398544 
	C103.782425,51.788696 104.271034,51.953377 104.759651,52.118065 
	C104.517654,51.749401 104.275665,51.380737 104.192574,50.738487 
	C104.934898,49.870281 105.518326,49.275665 106.417618,48.746025 
	C107.154152,48.899734 107.574829,48.988468 107.999039,49.291924 
	C108.002571,49.506645 108.005745,49.936138 107.850571,50.138729 
	C108.466202,50.560787 109.236992,50.780251 110.003937,51.000187 
	C110.000076,51.000660 110.000267,50.992443 110.000267,50.992443 
	C112.506866,52.690624 115.093750,54.284527 117.488426,56.128090 
	C118.815857,57.150040 120.731758,58.525551 120.824661,59.850883 
	C121.408195,68.175934 115.038277,72.318771 107.464180,69.103302 
	C106.050056,68.502960 103.701775,68.991531 102.247307,69.804955 
	C97.778931,72.303917 92.575829,71.163704 90.068604,66.377060 
M117.094078,59.331402 
	C117.094078,59.331402 117.029289,58.927872 116.593300,58.441338 
	C115.056648,58.293751 113.520004,58.146164 111.341179,58.283924 
	C110.218254,58.519554 109.095322,58.755184 107.487648,58.997398 
	C107.487648,58.997398 107.002853,58.997147 106.942764,58.338669 
	C106.212738,57.399498 105.482704,56.460331 104.752670,55.521164 
	C104.412933,55.919724 104.073196,56.318287 103.733459,56.716846 
	C104.821358,57.478851 105.909248,58.240852 106.998383,59.665073 
	C106.998734,60.106468 106.999092,60.547867 106.995331,61.745327 
	C108.374771,63.818516 109.754211,65.891701 111.133652,67.964890 
	C112.788734,66.327866 114.443810,64.690842 116.535126,62.850693 
	C116.758125,62.612209 116.921516,62.338184 117.573738,61.789146 
	C117.378654,61.198517 117.183571,60.607883 117.081635,59.886578 
	C117.081635,59.886578 117.137131,59.735996 117.094078,59.331402 
M109.614792,55.792717 
	C109.218857,55.789009 108.822716,55.781570 108.428055,55.802227 
	C108.417763,55.802765 108.412735,56.252785 108.423363,56.253590 
	C108.817062,56.283337 109.212898,56.284748 109.614792,55.792717 
z"/>
<path fill="#D1F3FA" opacity="1.000000" stroke="none" 
	d="
M84.633102,34.886322 
	C86.133331,36.438004 87.299828,37.838478 87.894424,38.552334 
	C87.894424,41.932014 87.894424,44.639355 87.894424,47.672756 
	C86.872398,47.672756 85.311867,47.672756 83.785088,47.672756 
	C82.447983,42.340614 78.087746,39.748722 72.470367,40.760830 
	C72.104660,40.013653 72.038628,39.491474 71.972588,38.969299 
	C72.512344,36.136894 73.462273,34.672783 77.007607,35.671299 
	C79.178139,36.282608 81.851723,35.107796 84.633102,34.886322 
M76.521652,37.384384 
	C76.521652,37.384384 76.610504,37.515060 76.521652,37.384384 
M79.384171,37.478592 
	C79.384171,37.478592 79.520279,37.391739 79.384171,37.478592 
z"/>
<path fill="#B7F2FC" opacity="1.000000" stroke="none" 
	d="
M64.979340,47.967175 
	C60.657822,47.604984 56.336308,47.242794 52.038521,46.193169 
	C51.614742,44.701172 51.167240,43.896618 50.719734,43.092064 
	C50.719734,43.092064 50.450176,43.115925 50.291870,42.756046 
	C50.152126,41.917061 50.170692,41.437950 50.526443,40.927990 
	C52.909424,39.264591 54.955215,37.632050 57.001007,35.999508 
	C57.443325,35.995930 57.885647,35.992355 58.667740,36.369392 
	C59.651859,37.509457 60.296200,38.268909 60.940544,39.028362 
	C61.424541,39.036114 61.908535,39.043865 62.954899,39.362976 
	C65.078148,40.136234 66.639023,40.598137 68.198532,41.382687 
	C67.857628,42.212543 67.518089,42.719753 67.108337,42.903275 
	C65.663773,42.797958 64.289421,43.016338 62.545345,43.293465 
	C63.709839,45.529503 64.344589,46.748341 64.979340,47.967175 
M56.292397,44.393883 
	C55.996643,44.616718 55.700886,44.839554 55.405132,45.062393 
	C55.583866,45.252113 55.762596,45.441833 55.941330,45.631554 
	C56.174221,45.343048 56.407112,45.054539 56.292397,44.393883 
M56.469715,41.632393 
	C56.469715,41.632393 56.381664,41.502045 56.469715,41.632393 
z"/>
<path fill="#F2FDFD" opacity="1.000000" stroke="none" 
	d="
M48.000183,34.999695 
	C48.175655,35.006130 48.351124,35.012562 48.739090,35.386635 
	C48.674164,36.898788 48.396748,38.043301 48.119518,39.384277 
	C48.119709,39.580746 48.157185,39.974419 47.864285,39.983929 
	C47.376137,40.000328 47.180885,40.007217 46.772293,40.117367 
	C46.292473,40.413120 46.112103,40.666843 45.981319,41.332115 
	C45.576920,42.551880 45.209053,43.421329 44.625751,44.213573 
	C44.410320,44.136372 44.012897,43.909363 44.014336,43.568340 
	C43.766953,42.173634 43.518131,41.119946 43.186882,39.731255 
	C42.746357,38.839546 42.388256,38.282848 42.012146,37.504242 
	C41.994144,37.282337 41.928837,36.841885 41.958469,36.602219 
	C40.990746,35.240540 39.993389,34.118519 38.810131,32.740795 
	C38.020370,32.357494 37.416519,32.229900 36.485538,32.102341 
	C35.507481,32.094933 34.856548,32.087494 34.205616,32.080055 
	C34.226830,30.883438 33.914661,28.804668 34.328926,28.648109 
	C35.847038,28.074390 38.219646,27.377018 39.148483,28.123095 
	C41.107609,29.696751 43.093445,31.954205 43.723202,34.293251 
	C44.608475,37.581326 46.073620,35.949341 47.800747,35.258255 
	C48.000000,35.000000 48.000183,34.999695 48.000183,34.999695 
z"/>
<path fill="#FCFDF9" opacity="1.000000" stroke="none" 
	d="
M44.064892,55.350258 
	C47.732887,53.192959 51.470715,51.399910 55.455906,49.488201 
	C54.457882,53.820671 53.730507,56.978241 53.002480,60.566345 
	C53.001823,60.996880 52.999939,61.000000 52.666805,61.001686 
	C51.891556,61.003166 51.449440,61.002956 51.007324,61.002747 
	C48.716457,59.240002 46.425591,57.477257 44.064892,55.350258 
z"/>
<path fill="#5CA6C4" opacity="1.000000" stroke="none" 
	d="
M71.786606,64.239822 
	C70.095123,64.577347 68.403641,64.914871 66.347565,65.368423 
	C65.982979,65.484451 65.503036,65.402290 65.259659,65.406128 
	C60.777241,62.805225 65.032310,60.271439 65.080673,57.702515 
	C67.114815,58.419987 69.148956,59.137455 71.562134,60.262939 
	C71.976944,61.757458 72.012718,62.843960 71.984131,64.008728 
	C71.919762,64.087006 71.786606,64.239815 71.786606,64.239822 
M67.290413,59.626877 
	C66.767548,59.554966 66.244690,59.483051 65.721825,59.411140 
	C66.109749,59.588371 66.497673,59.765602 67.290413,59.626877 
z"/>
<path fill="#6CB9D3" opacity="1.000000" stroke="none" 
	d="
M38.996037,32.996502 
	C39.993389,34.118519 40.990746,35.240540 41.729698,36.634102 
	C41.471291,36.905651 41.033531,37.055386 40.889130,36.821480 
	C40.161720,36.725483 39.578705,36.863392 38.656334,36.852776 
	C32.187855,34.865330 36.730206,40.989365 35.146362,41.654190 
	C32.762089,40.615383 30.908323,39.807713 29.054562,39.000046 
	C30.622984,37.222939 32.191406,35.445831 33.728516,33.318016 
	C33.794670,32.826736 33.892139,32.686157 34.097614,32.312817 
	C34.856548,32.087494 35.507481,32.094933 36.695740,32.328278 
	C37.820724,32.701622 38.408382,32.849060 38.996037,32.996502 
z"/>
<path fill="#D7FAFC" opacity="1.000000" stroke="none" 
	d="
M48.119331,39.187813 
	C48.396748,38.043301 48.674164,36.898788 49.002094,35.400764 
	C51.706905,34.470787 54.443180,30.117546 56.987625,35.609344 
	C54.955215,37.632050 52.909424,39.264591 50.414539,40.637283 
	C49.350075,39.980888 48.734703,39.584351 48.119331,39.187813 
z"/>
<path fill="#A9EDFA" opacity="1.000000" stroke="none" 
	d="
M71.707031,39.119484 
	C72.038628,39.491474 72.104660,40.013653 72.088470,40.767258 
	C72.291405,42.082706 72.576576,43.166729 72.530701,44.605347 
	C71.134720,44.673176 70.069786,44.386410 69.305405,43.921917 
	C69.644295,42.856728 69.682617,41.969261 69.751205,40.852596 
	C69.781464,40.623394 69.853157,40.166603 69.853157,40.166603 
	C70.382591,39.867622 70.912033,39.568649 71.707031,39.119484 
z"/>
<path fill="#D7FAFC" opacity="1.000000" stroke="none" 
	d="
M61.132004,38.758003 
	C60.296200,38.268909 59.651859,37.509457 58.998158,36.404221 
	C60.175949,35.802547 61.363094,35.546661 62.550243,35.290775 
	C62.141315,36.356400 61.732391,37.422020 61.132004,38.758003 
z"/>
<path fill="#D1F3FA" opacity="1.000000" stroke="none" 
	d="
M112.672653,41.884193 
	C112.833710,43.527401 112.994774,45.170605 112.562042,47.063385 
	C111.646614,47.213120 111.324989,47.113277 110.997437,46.627590 
	C110.975891,45.468445 110.960274,44.695145 110.962891,43.600403 
	C111.544960,42.814037 112.108803,42.349113 112.672653,41.884193 
z"/>
<path fill="#60B3C8" opacity="1.000000" stroke="none" 
	d="
M111.003357,47.013439 
	C111.324989,47.113277 111.646614,47.213120 112.217621,47.273834 
	C112.428139,47.685909 112.389275,48.137119 111.767288,48.715096 
	C110.121277,48.920311 109.058395,48.998756 107.995506,49.077202 
	C107.574829,48.988468 107.154152,48.899734 106.281113,48.534042 
	C105.586731,47.826775 105.344711,47.396465 105.334885,46.982548 
	C105.567078,46.998940 106.032600,47.003662 106.315132,46.986160 
	C106.785767,46.953506 106.973877,46.938354 107.508514,46.936172 
	C108.546516,46.907211 109.237984,46.865280 110.196777,46.877338 
	C110.643860,46.958702 110.823608,46.986073 111.003357,47.013439 
z"/>
<path fill="#69AFC9" opacity="1.000000" stroke="none" 
	d="
M107.161972,46.923203 
	C106.973877,46.938354 106.785767,46.953506 106.299667,46.662106 
	C105.736420,45.583443 105.471169,44.811329 105.101303,44.037437 
	C104.996689,44.035656 104.795319,43.978725 105.058083,43.713867 
	C106.911682,42.732353 108.502525,42.015697 110.093361,41.299049 
	C110.556938,40.965923 111.020515,40.632797 111.949783,40.239079 
	C112.415474,40.178486 112.850960,40.282700 112.850960,40.282700 
	C112.841019,40.643528 112.831078,41.004353 112.746902,41.624687 
	C112.108803,42.349113 111.544960,42.814037 110.702393,43.681007 
	C110.250679,44.139767 110.077690,44.196476 109.547760,44.203209 
	C108.514534,45.076557 107.838257,45.999878 107.161972,46.923203 
z"/>
<path fill="#5FA4B9" opacity="1.000000" stroke="none" 
	d="
M69.663406,39.892052 
	C69.853157,40.166603 69.781464,40.623394 69.497787,40.842476 
	C68.876045,41.061054 68.537979,41.060547 68.199905,41.060040 
	C66.639023,40.598137 65.078148,40.136234 63.317589,39.379639 
	C65.236488,39.262463 67.355072,39.439983 69.663406,39.892052 
z"/>
<path fill="#EDFCFC" opacity="1.000000" stroke="none" 
	d="
M51.011925,61.347382 
	C51.449440,61.002956 51.891556,61.003166 52.665268,61.002602 
	C52.698364,61.835468 52.399860,62.669109 52.101360,63.502754 
	C51.739746,62.899178 51.378136,62.295597 51.011925,61.347382 
z"/>
<path fill="#D5F3F8" opacity="1.000000" stroke="none" 
	d="
M107.999039,49.291924 
	C109.058395,48.998756 110.121277,48.920311 111.583084,48.872410 
	C111.537048,49.564144 111.092094,50.225338 110.323700,50.939487 
	C110.000267,50.992443 110.000076,51.000660 109.843483,50.746258 
	C109.126511,50.306618 108.566124,50.121380 108.005745,49.936138 
	C108.005745,49.936138 108.002571,49.506645 107.999039,49.291924 
z"/>
<path fill="#D1F3FA" opacity="1.000000" stroke="none" 
	d="
M112.817139,40.005806 
	C112.850960,40.282700 112.415474,40.178486 112.203667,40.105629 
	C111.993607,39.855854 111.995346,39.678936 111.998093,39.236282 
	C112.260506,39.223335 112.521912,39.476124 112.817139,40.005806 
z"/>
<path fill="#F2FDFD" opacity="1.000000" stroke="none" 
	d="
M47.999847,35.000092 
	C47.877914,34.857513 47.756134,34.714840 47.634357,34.572166 
	C47.720486,34.621769 47.806610,34.671371 47.946461,34.860336 
	C48.000183,34.999695 48.000000,35.000000 47.999847,35.000092 
z"/>
<path fill="#68BEDF" opacity="1.000000" stroke="none" 
	d="
M29.009449,39.385189 
	C30.908323,39.807713 32.762089,40.615383 35.146362,41.654190 
	C36.730206,40.989365 32.187855,34.865330 38.888374,37.041821 
	C37.775829,40.500137 39.080666,42.979721 41.038750,45.429520 
	C41.874046,46.474583 42.355595,47.802387 42.997890,49.001705 
	C42.997890,49.001705 42.999847,48.999695 42.695358,49.019096 
	C41.947571,49.399197 41.504272,49.759899 41.060978,50.120602 
	C41.060978,50.120602 41.004314,50.062229 40.803162,50.152687 
	C40.420036,50.526917 40.238064,50.810688 40.056091,51.094460 
	C40.056087,51.094460 40.006954,51.000008 39.650509,51.012463 
	C35.615036,51.162868 30.475908,53.356544 32.107548,45.917641 
	C32.138115,45.778282 30.755812,45.329021 30.032726,45.024357 
	C29.676598,43.273014 29.320469,41.521675 29.009449,39.385189 
z"/>
<path fill="#5AA9C0" opacity="1.000000" stroke="none" 
	d="
M72.046837,58.027485 
	C72.046837,57.237144 72.046837,56.446804 72.046837,55.328171 
	C76.128983,57.618725 79.938957,59.756561 84.114693,62.099632 
	C80.407791,62.960575 76.368454,63.898724 72.057861,64.538345 
	C71.786606,64.239815 71.919762,64.087006 72.269440,63.789249 
	C72.428360,61.670158 72.237602,59.848820 72.046837,58.027485 
z"/>
<path fill="#CCF5FB" opacity="1.000000" stroke="none" 
	d="
M69.004852,44.099644 
	C70.069786,44.386410 71.134720,44.673176 72.544846,44.944466 
	C73.272926,46.064819 73.655815,47.200653 74.377518,49.341599 
	C70.844048,48.787136 68.321793,48.391357 65.389442,47.981377 
	C64.344589,46.748341 63.709839,45.529503 62.545345,43.293465 
	C64.289421,43.016338 65.663773,42.797958 67.250717,43.127857 
	C67.977165,43.817303 68.491005,43.958473 69.004852,44.099644 
z"/>
<path fill="#D1F3FA" opacity="1.000000" stroke="none" 
	d="
M110.061111,40.917976 
	C108.502525,42.015697 106.911682,42.732353 104.847321,43.604622 
	C103.976845,43.496738 103.579903,43.233250 103.125061,42.652313 
	C102.998474,41.910408 102.929779,41.485954 102.876007,40.684078 
	C101.595551,39.890450 100.300171,39.474239 98.637939,39.023750 
	C97.535950,39.016048 96.800797,39.042622 96.065651,39.069195 
	C97.135170,38.711308 98.204697,38.353416 100.014908,37.997635 
	C101.503525,37.999626 102.251457,37.999508 102.999390,37.999390 
	C104.070534,37.998898 105.141670,37.998409 106.861702,38.001251 
	C107.510590,38.004585 108.006004,38.004185 108.006004,38.004185 
	C108.680290,38.848423 109.354576,39.692665 110.061111,40.917976 
z"/>
<path fill="#71B5CE" opacity="1.000000" stroke="none" 
	d="
M43.220505,48.997147 
	C42.355595,47.802387 41.874046,46.474583 41.038750,45.429520 
	C39.080666,42.979721 37.775829,40.500137 39.227730,37.190342 
	C39.578705,36.863392 40.161720,36.725483 40.980896,37.029682 
	C41.217056,37.471786 41.575733,37.751881 41.575733,37.751881 
	C41.575733,37.751881 42.030151,37.726147 42.030151,37.726147 
	C42.388256,38.282848 42.746357,38.839546 43.123512,40.081360 
	C43.432674,41.814106 43.722786,42.861732 44.012897,43.909363 
	C44.012897,43.909363 44.410320,44.136372 44.583191,44.544834 
	C44.466217,46.286041 44.176380,47.618782 43.886539,48.951527 
	C43.886539,48.951527 43.443115,48.992592 43.220505,48.997147 
z"/>
<path fill="#E4FCFE" opacity="1.000000" stroke="none" 
	d="
M44.307358,48.967201 
	C44.176380,47.618782 44.466217,46.286041 44.798622,44.622036 
	C45.209053,43.421329 45.576920,42.551880 46.194763,41.229443 
	C46.711666,40.583813 46.891968,40.329700 46.985638,40.014107 
	C47.180885,40.007217 47.376137,40.000328 48.131783,40.275993 
	C48.790119,43.049278 48.888058,45.540016 48.985996,48.030750 
	C48.985996,48.030750 48.994148,47.995708 48.775810,48.065247 
	C48.242924,48.318409 48.086945,48.592319 48.089523,48.956516 
	C46.969074,48.965302 45.848625,48.974091 44.307358,48.967201 
z"/>
<path fill="#71B5CE" opacity="1.000000" stroke="none" 
	d="
M29.907818,45.339043 
	C30.755812,45.329021 32.138115,45.778282 32.107548,45.917641 
	C30.475908,53.356544 35.615036,51.162868 39.683342,51.054550 
	C38.132111,53.676331 35.256084,54.742813 32.948685,52.668442 
	C31.202570,51.098667 30.789322,48.046303 29.907818,45.339043 
z"/>
<path fill="#5CA6C4" opacity="1.000000" stroke="none" 
	d="
M96.053268,39.054039 
	C96.800797,39.042622 97.535950,39.016048 98.634949,39.290806 
	C98.997971,39.770260 98.997131,39.948383 98.677917,40.259033 
	C95.632591,42.821831 94.405884,45.107540 99.291595,46.874794 
	C100.018700,46.882015 100.434563,46.848705 100.885078,47.166428 
	C100.934166,47.986229 100.948601,48.454987 100.963036,48.923748 
	C100.963036,48.923748 100.466774,48.893120 100.227364,48.960636 
	C99.045189,48.961212 98.102425,48.894272 96.619949,48.609444 
	C95.736237,48.227772 95.392227,48.063984 95.048218,47.900192 
	C95.048218,47.900192 95.064293,47.984875 95.014099,47.577808 
	C94.780228,45.181038 94.596550,43.191338 94.412880,41.201633 
	C94.650108,41.010788 94.814270,40.770103 95.187378,40.155693 
	C95.667084,39.568424 95.864761,39.305054 96.062447,39.041679 
	C96.062447,39.041679 96.040886,39.038887 96.053268,39.054039 
z"/>
<path fill="#D1F3FA" opacity="1.000000" stroke="none" 
	d="
M90.546005,42.031807 
	C90.318626,40.003262 90.091232,37.974716 89.863846,35.946175 
	C90.271950,35.785660 90.680054,35.625149 91.088158,35.464638 
	C91.708511,36.448635 92.328873,37.432632 92.639755,38.743847 
	C91.872398,39.342064 91.414520,39.613068 90.898651,40.245754 
	C90.742439,41.082226 90.644226,41.557014 90.546005,42.031807 
z"/>
<path fill="#93C1D4" opacity="1.000000" stroke="none" 
	d="
M49.303772,47.825394 
	C48.888058,45.540016 48.790119,43.049278 48.424683,40.266479 
	C48.157185,39.974419 48.119709,39.580746 48.119522,39.384277 
	C48.734703,39.584351 49.350075,39.980888 50.077354,40.668137 
	C50.170692,41.437950 50.152126,41.917061 50.156563,42.756340 
	C49.993561,44.617687 49.807552,46.118862 49.303772,47.825394 
z"/>
<path fill="#73BEE4" opacity="1.000000" stroke="none" 
	d="
M90.956642,39.884079 
	C91.414520,39.613068 91.872398,39.342064 92.619743,39.108658 
	C92.946472,39.554813 92.983742,39.963375 93.024811,41.115459 
	C93.054192,43.920769 93.079773,45.982552 93.105362,48.044334 
	C93.105362,48.044334 92.642670,48.197025 92.346588,47.740723 
	C91.685883,44.817638 91.321259,42.350857 90.956642,39.884079 
z"/>
<path fill="#D7FAFC" opacity="1.000000" stroke="none" 
	d="
M93.439545,48.026703 
	C93.079773,45.982552 93.054192,43.920769 93.074738,41.419613 
	C93.336876,41.009537 93.552879,41.038834 94.090881,41.134880 
	C94.596550,43.191338 94.780228,45.181038 95.037682,47.541740 
	C94.665550,47.944843 94.219635,47.976955 93.439545,48.026703 
z"/>
<path fill="#FEFFFF" opacity="1.000000" stroke="none" 
	d="
M102.993713,37.654251 
	C102.251457,37.999508 101.503525,37.999626 100.381981,37.989285 
	C100.540024,37.115147 101.071671,36.251472 101.603325,35.387794 
	C102.064896,36.028233 102.526459,36.668671 102.993713,37.654251 
z"/>
<path fill="#388AB4" opacity="1.000000" stroke="none" 
	d="
M90.898651,40.245758 
	C91.321259,42.350857 91.685883,44.817638 92.103165,47.730782 
	C91.908615,48.202320 91.661392,48.227489 91.062042,47.894901 
	C90.632095,47.386486 90.554260,47.235828 90.476425,47.085167 
	C90.555832,45.678532 90.635231,44.271900 90.630318,42.448536 
	C90.644226,41.557014 90.742439,41.082226 90.898651,40.245758 
z"/>
<path fill="#2D93B2" opacity="1.000000" stroke="none" 
	d="
M71.995056,58.329491 
	C72.237602,59.848820 72.428360,61.670158 72.333809,63.710976 
	C72.012718,62.843960 71.976944,61.757458 71.911766,60.263176 
	C71.902672,59.447426 71.922974,59.039459 71.995056,58.329491 
z"/>
<path fill="#73BEE4" opacity="1.000000" stroke="none" 
	d="
M50.810188,43.431267 
	C51.167240,43.896618 51.614742,44.701172 52.036156,45.865101 
	C51.640259,45.406471 51.270454,44.588467 50.810188,43.431267 
z"/>
<path fill="#71B5CE" opacity="1.000000" stroke="none" 
	d="
M41.368656,50.145378 
	C41.504272,49.759899 41.947571,49.399197 42.696686,49.018269 
	C42.560444,49.388744 42.118389,49.779449 41.368656,50.145378 
z"/>
<path fill="#FEFFFF" opacity="1.000000" stroke="none" 
	d="
M107.919327,37.836517 
	C108.006004,38.004185 107.510590,38.004585 107.263336,37.993813 
	C107.288269,37.878307 107.560463,37.773579 107.919327,37.836517 
z"/>
<path fill="#D1F3FA" opacity="1.000000" stroke="none" 
	d="
M95.818756,39.126556 
	C95.864761,39.305054 95.667084,39.568424 95.243111,39.941887 
	C95.202911,39.771793 95.388992,39.491611 95.818756,39.126556 
z"/>
<path fill="#D1F3FA" opacity="1.000000" stroke="none" 
	d="
M90.385391,47.205357 
	C90.554260,47.235828 90.632095,47.386486 90.703972,47.791344 
	C90.381180,47.896626 90.246628,47.656628 90.385391,47.205357 
z"/>
<path fill="#93C1D4" opacity="1.000000" stroke="none" 
	d="
M48.328621,48.883270 
	C48.086945,48.592319 48.242924,48.318409 48.791058,48.055710 
	C48.872337,48.254429 48.720032,48.532227 48.328621,48.883270 
z"/>
<path fill="#D7FAFC" opacity="1.000000" stroke="none" 
	d="
M95.190758,48.168030 
	C95.392227,48.063984 95.736237,48.227772 96.265129,48.616913 
	C96.077774,48.706802 95.705536,48.571335 95.190758,48.168030 
z"/>
<path fill="#71B5CE" opacity="1.000000" stroke="none" 
	d="
M40.335403,51.056049 
	C40.238064,50.810688 40.420036,50.526917 40.843803,50.150921 
	C40.928631,50.378345 40.771675,50.697994 40.335403,51.056049 
z"/>
<path fill="#3596BA" opacity="1.000000" stroke="none" 
	d="
M117.025299,62.028618 
	C116.921516,62.338184 116.758125,62.612209 115.966995,62.950493 
	C114.170929,63.909286 112.943008,64.768280 111.296051,65.920410 
	C111.203995,64.622917 111.148895,63.846226 111.307480,62.924545 
	C111.543190,62.412670 111.565201,62.045780 111.587212,61.678890 
	C111.355316,62.085594 111.123421,62.492294 110.576248,62.880722 
	C109.463280,62.230419 108.665565,61.598389 107.910179,60.727631 
	C107.952499,60.488907 108.002342,60.006084 108.407646,59.997711 
	C109.889778,59.948887 110.966606,59.908432 112.415390,59.904007 
	C113.527855,59.863934 114.268349,59.787827 115.362114,59.791122 
	C116.189293,59.825684 116.663216,59.780842 117.137131,59.736000 
	C117.137131,59.735996 117.081635,59.886578 117.034149,60.287144 
	C116.999535,61.134678 117.012421,61.581650 117.025299,62.028618 
z"/>
<path fill="#59AECF" opacity="1.000000" stroke="none" 
	d="
M107.867859,60.966358 
	C108.665565,61.598389 109.463280,62.230419 110.625763,62.924606 
	C110.990540,62.986763 111.093788,63.069530 111.093788,63.069530 
	C111.148895,63.846226 111.203995,64.622917 111.296051,65.920410 
	C112.943008,64.768280 114.170929,63.909286 115.748871,63.052055 
	C114.443810,64.690842 112.788734,66.327866 111.133652,67.964890 
	C109.754211,65.891701 108.374771,63.818516 107.214233,61.352482 
	C107.433144,60.959637 107.867859,60.966358 107.867859,60.966358 
z"/>
<path fill="#B7F3F7" opacity="1.000000" stroke="none" 
	d="
M103.182961,42.969757 
	C103.579903,43.233250 103.976845,43.496738 104.584549,43.869476 
	C104.795319,43.978725 104.996689,44.035656 104.994308,44.394417 
	C105.028854,45.490837 105.065773,46.228497 105.102692,46.966156 
	C105.344711,47.396465 105.586731,47.826775 105.965256,48.469063 
	C105.518326,49.275665 104.934898,49.870281 103.955292,50.762321 
	C103.559120,51.059750 103.096581,51.173077 103.096581,51.173077 
	C103.096581,51.173077 103.006851,51.071564 103.008217,50.592377 
	C102.955650,48.734737 102.901726,47.356281 102.913162,45.604591 
	C103.046677,44.477489 103.114815,43.723625 103.182961,42.969757 
z"/>
<path fill="#C0FCFF" opacity="1.000000" stroke="none" 
	d="
M115.008850,59.711716 
	C114.268349,59.787827 113.527855,59.863934 112.407501,59.592911 
	C112.012886,58.830048 111.998116,58.414314 111.983353,57.998577 
	C113.520004,58.146164 115.056648,58.293751 116.531372,58.724846 
	C115.982574,59.242809 115.495712,59.477264 115.008850,59.711716 
z"/>
<path fill="#2CA3D9" opacity="1.000000" stroke="none" 
	d="
M102.847794,45.977825 
	C102.901726,47.356281 102.955650,48.734737 102.993317,50.526295 
	C102.382088,50.455448 101.787132,49.971497 101.077606,49.205647 
	C100.948601,48.454987 100.934166,47.986229 100.933304,46.959278 
	C100.946884,46.401089 101.094727,46.002888 101.310318,45.993572 
	C101.525917,45.984257 101.956520,45.955002 102.179199,45.966309 
	C102.401871,45.977619 102.847794,45.977825 102.847794,45.977825 
z"/>
<path fill="#D5F3F8" opacity="1.000000" stroke="none" 
	d="
M106.997147,59.002853 
	C105.909248,58.240852 104.821358,57.478851 103.733459,56.716846 
	C104.073196,56.318287 104.412933,55.919724 104.752670,55.521164 
	C105.482704,56.460331 106.212738,57.399498 106.971382,58.669334 
	C107.000000,59.000000 106.997147,59.002853 106.997147,59.002853 
z"/>
<path fill="#9FD8F7" opacity="1.000000" stroke="none" 
	d="
M111.662262,58.141251 
	C111.998116,58.414314 112.012886,58.830048 112.035538,59.556881 
	C110.966606,59.908432 109.889778,59.948887 108.391525,59.744087 
	C107.970871,59.329494 107.971634,59.160152 107.972397,58.990810 
	C109.095322,58.755184 110.218254,58.519554 111.662262,58.141251 
z"/>
<path fill="#D5F3F8" opacity="1.000000" stroke="none" 
	d="
M109.611618,56.041367 
	C109.212898,56.284748 108.817062,56.283337 108.423363,56.253590 
	C108.412735,56.252785 108.417763,55.802765 108.428055,55.802227 
	C108.822716,55.781570 109.218857,55.789009 109.611618,56.041367 
z"/>
<path fill="#D5F3F8" opacity="1.000000" stroke="none" 
	d="
M103.195190,51.398544 
	C103.096581,51.173077 103.559120,51.059750 103.796402,51.035912 
	C104.275665,51.380737 104.517654,51.749401 104.759651,52.118065 
	C104.271034,51.953377 103.782425,51.788696 103.195190,51.398544 
z"/>
<path fill="#FEFFFF" opacity="1.000000" stroke="none" 
	d="
M107.850571,50.138729 
	C108.566124,50.121380 109.126511,50.306618 109.847336,50.745785 
	C109.236992,50.780251 108.466202,50.560787 107.850571,50.138729 
z"/>
<path fill="#59AECF" opacity="1.000000" stroke="none" 
	d="
M117.299515,61.908882 
	C117.012421,61.581650 116.999535,61.134678 116.987572,60.352482 
	C117.183571,60.607883 117.378654,61.198517 117.299515,61.908882 
z"/>
<path fill="#9FD8F7" opacity="1.000000" stroke="none" 
	d="
M115.362114,59.791122 
	C115.495712,59.477264 115.982574,59.242809 116.749359,58.968117 
	C117.029289,58.927872 117.094078,59.331402 117.115601,59.533699 
	C116.663216,59.780842 116.189293,59.825684 115.362114,59.791122 
z"/>
<path fill="#D5F3F8" opacity="1.000000" stroke="none" 
	d="
M107.730026,58.994102 
	C107.971634,59.160152 107.970871,59.329494 107.986221,59.752460 
	C108.002342,60.006084 107.952499,60.488907 107.910179,60.727631 
	C107.867859,60.966358 107.433144,60.959637 107.216293,60.974449 
	C106.999092,60.547867 106.998734,60.106468 106.997765,59.333961 
	C106.997147,59.002853 107.000000,59.000000 107.001427,58.998573 
	C107.002853,58.997147 107.487648,58.997398 107.730026,58.994102 
z"/>
<path fill="#FEFFFF" opacity="1.000000" stroke="none" 
	d="
M76.566078,37.449722 
	C76.610504,37.515060 76.521652,37.384384 76.566078,37.449722 
z"/>
<path fill="#FEFFFF" opacity="1.000000" stroke="none" 
	d="
M79.452225,37.435165 
	C79.520279,37.391739 79.384171,37.478592 79.452225,37.435165 
z"/>
<path fill="#45999F" opacity="1.000000" stroke="none" 
	d="
M69.305405,43.921917 
	C68.491005,43.958473 67.977165,43.817303 67.320938,43.451553 
	C67.518089,42.719753 67.857628,42.212543 68.198532,41.382687 
	C68.537979,41.060547 68.876045,41.061054 69.467529,41.071678 
	C69.682617,41.969261 69.644295,42.856728 69.305405,43.921917 
z"/>
<path fill="#EDFCFC" opacity="1.000000" stroke="none" 
	d="
M56.466198,44.579956 
	C56.407112,45.054539 56.174221,45.343048 55.941330,45.631554 
	C55.762596,45.441833 55.583866,45.252113 55.405128,45.062393 
	C55.700886,44.839554 55.996643,44.616718 56.466198,44.579956 
z"/>
<path fill="#EDFCFC" opacity="1.000000" stroke="none" 
	d="
M56.425690,41.567219 
	C56.381664,41.502045 56.469715,41.632393 56.425690,41.567219 
z"/>
<path fill="#E4FCFE" opacity="1.000000" stroke="none" 
	d="
M44.014336,43.568340 
	C43.722786,42.861732 43.432674,41.814106 43.205933,40.416367 
	C43.518131,41.119946 43.766953,42.173634 44.014336,43.568340 
z"/>
<path fill="#E4FCFE" opacity="1.000000" stroke="none" 
	d="
M38.810131,32.740795 
	C38.408382,32.849060 37.820724,32.701622 37.022865,32.328247 
	C37.416519,32.229900 38.020370,32.357494 38.810131,32.740795 
z"/>
<path fill="#E4FCFE" opacity="1.000000" stroke="none" 
	d="
M42.012146,37.504242 
	C42.030151,37.726147 41.575733,37.751881 41.575733,37.751881 
	C41.575733,37.751881 41.217056,37.471786 41.125294,37.263588 
	C41.033531,37.055386 41.471291,36.905651 41.700066,36.873768 
	C41.928837,36.841885 41.994144,37.282337 42.012146,37.504242 
z"/>
<path fill="#D7FAFC" opacity="1.000000" stroke="none" 
	d="
M46.772293,40.117367 
	C46.891968,40.329700 46.711666,40.583813 46.231293,40.879124 
	C46.112103,40.666843 46.292473,40.413120 46.772293,40.117367 
z"/>
<path fill="#EDFCFC" opacity="1.000000" stroke="none" 
	d="
M67.088005,59.784851 
	C66.497673,59.765602 66.109749,59.588371 65.721825,59.411140 
	C66.244690,59.483051 66.767548,59.554966 67.088005,59.784851 
z"/>
<path fill="#A9EDFA" opacity="1.000000" stroke="none" 
	d="
M109.904709,44.253185 
	C110.077690,44.196476 110.250679,44.139767 110.684158,44.002449 
	C110.960274,44.695145 110.975891,45.468445 110.997437,46.627590 
	C110.823608,46.986073 110.643860,46.958702 110.223541,46.556385 
	C109.956879,45.538689 109.930794,44.895939 109.904709,44.253185 
z"/>
<path fill="#D7FAFC" opacity="1.000000" stroke="none" 
	d="
M109.547760,44.203209 
	C109.930794,44.895939 109.956879,45.538689 109.956207,46.502396 
	C109.237984,46.865280 108.546516,46.907211 107.508514,46.936172 
	C107.838257,45.999878 108.514534,45.076557 109.547760,44.203209 
z"/>
<path fill="#45999F" opacity="1.000000" stroke="none" 
	d="
M105.334885,46.982548 
	C105.065773,46.228497 105.028854,45.490837 105.098923,44.396198 
	C105.471169,44.811329 105.736420,45.583443 106.017136,46.679607 
	C106.032600,47.003662 105.567078,46.998940 105.334885,46.982548 
z"/>
<path fill="#3596BA" opacity="1.000000" stroke="none" 
	d="
M102.913162,45.604591 
	C102.847794,45.977825 102.401871,45.977619 102.101822,45.770660 
	C101.656799,45.310265 101.452026,45.121746 101.148331,44.667709 
	C101.057739,43.897438 101.006279,43.457603 101.049561,42.776733 
	C101.191750,42.369690 101.239204,42.203686 101.481178,41.908379 
	C102.070831,41.539879 102.465958,41.300686 102.861092,41.061493 
	C102.929779,41.485954 102.998474,41.910408 103.125061,42.652313 
	C103.114815,43.723625 103.046677,44.477489 102.913162,45.604591 
z"/>
<path fill="#58A3C5" opacity="1.000000" stroke="none" 
	d="
M102.876007,40.684074 
	C102.465958,41.300686 102.070831,41.539879 101.353043,41.604523 
	C100.352356,40.995483 99.674324,40.560997 98.996292,40.126511 
	C98.997131,39.948383 98.997971,39.770260 99.001801,39.325081 
	C100.300171,39.474239 101.595551,39.890450 102.876007,40.684074 
z"/>
<path fill="#BFF2FC" opacity="1.000000" stroke="none" 
	d="
M98.677917,40.259037 
	C99.674324,40.560997 100.352356,40.995483 101.158524,41.733826 
	C101.239204,42.203686 101.191750,42.369690 100.754013,42.629501 
	C96.056755,42.799450 98.254089,45.064373 98.980347,46.834263 
	C94.405884,45.107540 95.632591,42.821831 98.677917,40.259037 
z"/>
<path fill="#EDFCFC" opacity="1.000000" stroke="none" 
	d="
M99.291595,46.874794 
	C98.254089,45.064373 96.056755,42.799450 100.659279,42.870537 
	C101.006279,43.457603 101.057739,43.897438 101.066666,44.913452 
	C101.047668,45.660713 101.071198,45.831799 101.094727,46.002888 
	C101.094727,46.002888 100.946884,46.401089 100.898651,46.608238 
	C100.434563,46.848705 100.018700,46.882015 99.291595,46.874794 
z"/>
<path fill="#59AECF" opacity="1.000000" stroke="none" 
	d="
M110.941025,62.942879 
	C111.123421,62.492294 111.355316,62.085594 111.587212,61.678890 
	C111.565201,62.045780 111.543190,62.412670 111.307480,62.924545 
	C111.093788,63.069530 110.990540,62.986763 110.941025,62.942879 
z"/>
<path fill="#58A3C5" opacity="1.000000" stroke="none" 
	d="
M101.310318,45.993572 
	C101.071198,45.831799 101.047668,45.660713 101.105804,45.243889 
	C101.452026,45.121746 101.656799,45.310265 101.879150,45.759354 
	C101.956520,45.955002 101.525917,45.984257 101.310318,45.993572 
z"/>
</svg>